<?xml version="1.0" encoding="UTF-8" standalone="no"?>
<!-- Created with Inkscape (http://www.inkscape.org/) -->

<svg
   xmlns:dc="http://purl.org/dc/elements/1.1/"
   xmlns:cc="http://creativecommons.org/ns#"
   xmlns:rdf="http://www.w3.org/1999/02/22-rdf-syntax-ns#"
   xmlns:svg="http://www.w3.org/2000/svg"
   xmlns="http://www.w3.org/2000/svg"
   xmlns:sodipodi="http://sodipodi.sourceforge.net/DTD/sodipodi-0.dtd"
   xmlns:inkscape="http://www.inkscape.org/namespaces/inkscape"
   width="160"
   height="160"
   id="svg2"
   sodipodi:version="0.32"
   inkscape:version="0.47 r22583"
   version="1.0"
   inkscape:export-filename="/home/pampryl/working/demo/openvolunteer/static-files/openvolunteer_favicon.png"
   inkscape:export-xdpi="9"
   inkscape:export-ydpi="9"
   sodipodi:docname="openvolunteer_favicon.svg"
   inkscape:output_extension="org.inkscape.output.svg.inkscape">
  <defs
     id="defs4">
    <inkscape:perspective
       sodipodi:type="inkscape:persp3d"
       inkscape:vp_x="0 : 526.18109 : 1"
       inkscape:vp_y="0 : 1000 : 0"
       inkscape:vp_z="744.09448 : 526.18109 : 1"
       inkscape:persp3d-origin="372.04724 : 350.78739 : 1"
       id="perspective10" />
  </defs>
  <sodipodi:namedview
     id="base"
     pagecolor="#ffffff"
     bordercolor="#666666"
     borderopacity="1.0"
     inkscape:pageopacity="0.0"
     inkscape:pageshadow="2"
     inkscape:zoom="1.979899"
     inkscape:cx="124.55152"
     inkscape:cy="65.082889"
     inkscape:document-units="px"
     inkscape:current-layer="layer1"
     showgrid="false"
     width="160px"
     inkscape:window-width="1280"
     inkscape:window-height="759"
     inkscape:window-x="0"
     inkscape:window-y="24"
     inkscape:window-maximized="1" />
  <metadata
     id="metadata7">
    <rdf:RDF>
      <cc:Work
         rdf:about="">
        <dc:format>image/svg+xml</dc:format>
        <dc:type
           rdf:resource="http://purl.org/dc/dcmitype/StillImage" />
        <dc:title></dc:title>
      </cc:Work>
    </rdf:RDF>
  </metadata>
  <g
     inkscape:label="Calque 1"
     inkscape:groupmode="layer"
     id="layer1"
     transform="translate(0,40)">
    <g
       id="g3184"
       transform="matrix(1.4528474,0,0,1.4528474,140.87721,-35.038196)"
       style="fill:#529173;fill-opacity:1;stroke:#529173;stroke-opacity:1">
      <path
         transform="matrix(1.4772727,0,0,1.4772727,5.103721,-40.077258)"
         d="m 34.345187,47.269016 c 0,6.136811 -4.974868,11.111678 -11.111678,11.111678 -6.13681,0 -11.111678,-4.974867 -11.111678,-11.111678 0,-6.13681 4.974868,-11.111678 11.111678,-11.111678 6.13681,0 11.111678,4.974868 11.111678,11.111678 z"
         sodipodi:ry="11.111678"
         sodipodi:rx="11.111678"
         sodipodi:cy="47.269016"
         sodipodi:cx="23.233509"
         id="path3186"
         style="fill:#529173;fill-opacity:1;stroke:#529173;stroke-opacity:1"
         sodipodi:type="arc" />
      <g
         style="fill:#529173;fill-opacity:1;stroke:#529173;stroke-opacity:1"
         transform="translate(12.783176,-9.8975727)"
         id="g3188">
        <path
           style="fill:#529173;fill-opacity:1;fill-rule:evenodd;stroke:#529173;stroke-width:1.11329734px;stroke-linecap:butt;stroke-linejoin:miter;stroke-opacity:1"
           d="m 26.573153,55.054944 9.291333,-0.153134 c 14.947348,2.274577 16.884918,37.963963 20.647408,61.25347 l -29.938741,0 0,-61.100336 z"
           id="path3190"
           sodipodi:nodetypes="ccccc" />
        <path
           style="fill:#529173;fill-opacity:1;fill-rule:evenodd;stroke:#529173;stroke-width:1.11329734px;stroke-linecap:butt;stroke-linejoin:miter;stroke-opacity:1"
           d="M 26.712394,55.054944 17.421061,54.90181 C 2.4737133,57.176387 0.53614328,92.865773 -3.2263467,116.15528 l 29.9387407,0 0,-61.100336 z"
           id="path3192"
           sodipodi:nodetypes="ccccc" />
      </g>
    </g>
    <g
       id="g3194"
       transform="matrix(1.4528474,0,0,1.4528474,18.077015,-35.038196)"
       style="fill:#aaaaaa;fill-opacity:1;stroke:#aaaaaa;stroke-opacity:1">
      <path
         transform="matrix(1.4772727,0,0,1.4772727,5.103721,-40.077258)"
         d="m 34.345187,47.269016 c 0,6.136811 -4.974868,11.111678 -11.111678,11.111678 -6.13681,0 -11.111678,-4.974867 -11.111678,-11.111678 0,-6.13681 4.974868,-11.111678 11.111678,-11.111678 6.13681,0 11.111678,4.974868 11.111678,11.111678 z"
         sodipodi:ry="11.111678"
         sodipodi:rx="11.111678"
         sodipodi:cy="47.269016"
         sodipodi:cx="23.233509"
         id="path3196"
         style="fill:#aaaaaa;fill-opacity:1;stroke:#aaaaaa;stroke-opacity:1"
         sodipodi:type="arc" />
      <g
         style="fill:#aaaaaa;fill-opacity:1;stroke:#aaaaaa;stroke-opacity:1"
         transform="translate(12.783176,-9.8975727)"
         id="g3198">
        <path
           style="fill:#aaaaaa;fill-opacity:1;fill-rule:evenodd;stroke:#aaaaaa;stroke-width:1.11329734px;stroke-linecap:butt;stroke-linejoin:miter;stroke-opacity:1"
           d="m 26.573153,55.054944 9.291333,-0.153134 c 14.947348,2.274577 16.884918,37.963963 20.647408,61.25347 l -29.938741,0 0,-61.100336 z"
           id="path3200"
           sodipodi:nodetypes="ccccc" />
        <path
           style="fill:#aaaaaa;fill-opacity:1;fill-rule:evenodd;stroke:#aaaaaa;stroke-width:1.11329734px;stroke-linecap:butt;stroke-linejoin:miter;stroke-opacity:1"
           d="M 26.712394,55.054944 17.421061,54.90181 C 2.4737133,57.176387 0.53614328,92.865773 -3.2263467,116.15528 l 29.9387407,0 0,-61.100336 z"
           id="path3202"
           sodipodi:nodetypes="ccccc" />
      </g>
    </g>
    <g
       id="g3178"
       transform="matrix(1.4528474,0,0,1.4528474,79.477112,-0.04917894)"
       style="fill:#333333;fill-opacity:1;stroke:#333333;stroke-opacity:1">
      <path
         transform="matrix(1.4772727,0,0,1.4772727,5.103721,-40.077258)"
         d="m 34.345187,47.269016 c 0,6.136811 -4.974868,11.111678 -11.111678,11.111678 -6.13681,0 -11.111678,-4.974867 -11.111678,-11.111678 0,-6.13681 4.974868,-11.111678 11.111678,-11.111678 6.13681,0 11.111678,4.974868 11.111678,11.111678 z"
         sodipodi:ry="11.111678"
         sodipodi:rx="11.111678"
         sodipodi:cy="47.269016"
         sodipodi:cx="23.233509"
         id="path2394"
         style="fill:#333333;fill-opacity:1;stroke:#333333;stroke-opacity:1"
         sodipodi:type="arc" />
      <g
         style="fill:#333333;fill-opacity:1;stroke:#333333;stroke-opacity:1"
         transform="translate(12.783176,-9.8975727)"
         id="g3174">
        <path
           style="fill:#333333;fill-opacity:1;fill-rule:evenodd;stroke:#333333;stroke-width:1.11329734px;stroke-linecap:butt;stroke-linejoin:miter;stroke-opacity:1"
           d="m 26.573153,55.054944 9.291333,-0.153134 c 14.947348,2.274577 16.884918,37.963963 20.647408,61.25347 l -29.938741,0 0,-61.100336 z"
           id="path3170"
           sodipodi:nodetypes="ccccc" />
        <path
           style="fill:#333333;fill-opacity:1;fill-rule:evenodd;stroke:#333333;stroke-width:1.11329734px;stroke-linecap:butt;stroke-linejoin:miter;stroke-opacity:1"
           d="M 26.712394,55.054944 17.421061,54.90181 C 2.4737133,57.176387 0.53614328,92.865773 -3.2263467,116.15528 l 29.9387407,0 0,-61.100336 z"
           id="path3172"
           sodipodi:nodetypes="ccccc" />
      </g>
    </g>
    <g
       id="g3222"
       style="fill:#164f32;fill-opacity:1;stroke:#164f32;stroke-opacity:1"
       transform="matrix(1.4528474,0,0,1.4528474,9.0274993,-55.309269)">
      <g
         style="fill:#164f32;fill-opacity:1;stroke:#164f32;stroke-opacity:1"
         transform="translate(-36.033092,38.035714)"
         id="g3204">
        <path
           sodipodi:type="arc"
           style="fill:#164f32;fill-opacity:1;stroke:#164f32;stroke-opacity:1"
           id="path3206"
           sodipodi:cx="23.233509"
           sodipodi:cy="47.269016"
           sodipodi:rx="11.111678"
           sodipodi:ry="11.111678"
           d="m 34.345187,47.269016 c 0,6.136811 -4.974868,11.111678 -11.111678,11.111678 -6.13681,0 -11.111678,-4.974867 -11.111678,-11.111678 0,-6.13681 4.974868,-11.111678 11.111678,-11.111678 6.13681,0 11.111678,4.974868 11.111678,11.111678 z"
           transform="matrix(1.4772727,0,0,1.4772727,5.103721,-40.077258)" />
        <g
           id="g3208"
           transform="translate(12.783176,-9.8975727)"
           style="fill:#164f32;fill-opacity:1;stroke:#164f32;stroke-opacity:1">
          <path
             sodipodi:nodetypes="ccccc"
             id="path3210"
             d="m 26.573153,55.054944 9.291333,-0.153134 c 14.947348,2.274577 16.884918,37.963963 20.647408,61.25347 l -29.938741,0 0,-61.100336 z"
             style="fill:#164f32;fill-opacity:1;fill-rule:evenodd;stroke:#164f32;stroke-width:1.11329734px;stroke-linecap:butt;stroke-linejoin:miter;stroke-opacity:1" />
          <path
             sodipodi:nodetypes="ccccc"
             id="path3212"
             d="M 26.712394,55.054944 17.421061,54.90181 C 2.4737133,57.176387 0.53614328,92.865773 -3.2263467,116.15528 l 29.9387407,0 0,-61.100336 z"
             style="fill:#164f32;fill-opacity:1;fill-rule:evenodd;stroke:#164f32;stroke-width:1.11329734px;stroke-linecap:butt;stroke-linejoin:miter;stroke-opacity:1" />
        </g>
      </g>
    </g>
  </g>
</svg>
